<svg width="594" height="446" viewBox="0 0 594 446" fill="none" xmlns="http://www.w3.org/2000/svg">
<path d="M359.19 220.954C357.097 207.458 349.495 199.521 349.495 199.521C340.247 193.444 332.937 200.192 332.937 200.192C332.937 200.192 325.626 193.444 316.378 199.521C316.378 199.521 308.766 207.447 306.683 220.954C304.59 234.449 312.796 240.361 312.796 240.361H353.087C353.087 240.361 361.293 234.46 359.2 220.954H359.19Z" fill="#2B2B2B" stroke="#2B2B2B" stroke-linecap="round" stroke-linejoin="round"/>
<path d="M364.418 236.046C364.418 236.046 381.638 234.284 388.179 246.966C394.721 259.636 412.778 317.737 411.221 320.907C409.663 324.077 398.459 324.077 394.409 320.555C390.36 317.032 371.991 281.828 371.991 281.828L364.427 236.057L364.418 236.046Z" fill="white" stroke="#2B2B2B" stroke-linecap="round" stroke-linejoin="round"/>
<path d="M368.399 252.283C368.399 252.283 375.69 273.792 377.257 291.174L371.991 281.828L368.399 252.283Z" fill="#2B2B2B" stroke="#2B2B2B" stroke-linecap="round" stroke-linejoin="round"/>
<path d="M377.442 350.838C374.415 340.27 365.021 318.793 365.021 317.384C365.021 315.975 372.896 289.919 372.896 278.306C372.896 266.692 364.418 236.057 364.418 236.057C364.418 236.057 351.461 233.657 348.473 229.826C345.484 225.995 345.961 206.819 345.961 206.819L332.907 205.08L319.854 206.819C319.854 206.819 320.321 225.995 317.342 229.826C314.354 233.657 301.397 236.057 301.397 236.057C301.397 236.057 292.918 266.692 292.918 278.306C292.918 289.919 300.794 315.986 300.794 317.384C300.794 318.782 291.4 340.27 288.372 350.838C285.345 361.406 282.619 381.826 282.318 391.326L332.917 426.188L383.516 391.326C383.215 381.815 380.489 361.395 377.462 350.838H377.442Z" fill="white" stroke="#2B2B2B" stroke-linecap="round" stroke-linejoin="round"/>
<path d="M330.464 215.736L344.744 219.027L344.423 206.39L330.464 215.736Z" fill="#2B2B2B" stroke="#2B2B2B" stroke-linecap="round" stroke-linejoin="round"/>
<path d="M312.777 240.361C312.777 240.361 325.938 239.568 328.624 239.788" stroke="#2B2B2B" stroke-linecap="round" stroke-linejoin="round"/>
<path d="M353.067 240.361L339.205 239.425C339.205 239.425 335.682 240.152 335.682 242.684" stroke="#2B2B2B" stroke-linecap="round" stroke-linejoin="round"/>
<path d="M352.551 153.848C351.159 151.537 349.358 149.775 346.74 148.19C344.482 146.825 342.028 145.845 339.546 145.097C331.106 142.532 317.05 144.712 312.261 153.881C308.27 161.521 307.968 164.548 308.708 171.659C309.447 178.771 313.439 203.649 316.992 207.92C320.545 212.191 328.537 215.736 330.454 215.736H334.299C336.227 215.736 344.209 212.18 347.762 207.92C351.315 203.649 355.306 178.771 356.046 171.659C356.523 167.069 356.046 162.457 354.508 158.141C353.924 156.512 353.291 155.103 352.542 153.848H352.551Z" fill="white" stroke="#2B2B2B" stroke-linecap="round" stroke-linejoin="round"/>
<path d="M318.841 179.453C318.841 179.453 323.309 181.886 327.933 178.517" stroke="#2B2B2B" stroke-linecap="round" stroke-linejoin="round"/>
<path d="M328.926 168.412C328.926 168.412 321.479 163.734 317.352 171.219" stroke="#2B2B2B" stroke-width="2" stroke-linecap="round" stroke-linejoin="round"/>
<path d="M347.12 179.453C347.12 179.453 342.651 181.886 338.028 178.517" stroke="#2B2B2B" stroke-linecap="round" stroke-linejoin="round"/>
<path d="M337.025 168.412C337.025 168.412 344.472 163.734 348.599 171.219" stroke="#2B2B2B" stroke-width="2" stroke-linecap="round" stroke-linejoin="round"/>
<path d="M337.025 172.903C337.025 172.903 334.543 180.95 335.536 181.699C336.529 182.447 337.852 184.132 337.19 186.19C336.529 188.249 334.874 188.81 334.377 188.81" stroke="#2B2B2B" stroke-linecap="round" stroke-linejoin="round"/>
<path d="M335.049 198.156C335.049 199.191 334.416 200.027 333.647 200.027C332.878 200.027 332.245 199.191 332.245 198.156C332.245 197.121 332.878 196.284 333.647 196.284C334.416 196.284 335.049 197.121 335.049 198.156Z" fill="#2B2B2B"/>
<path d="M354.527 158.868C353.943 157.151 353.311 155.665 352.561 154.355C351.169 151.922 349.368 150.073 346.75 148.41C344.491 146.979 342.038 145.944 339.556 145.152C331.983 142.73 322.044 144.062 315.804 149.764C308.922 156.05 306.916 168.61 309.506 177.802C310.771 177.218 311.647 175.699 311.608 174.158C311.56 172.056 310.012 170.239 310.061 168.137C310.109 166.111 311.579 164.559 312.67 162.952C315.298 159.077 316.252 153.595 319.902 150.986C321.956 149.511 324.526 149.269 326.95 149.423C328.975 149.555 330.98 149.962 333.014 149.995C334.698 150.017 336.198 149.401 337.872 149.258C341.201 148.983 344.618 150.447 346.691 153.463C349.261 157.206 350.478 162.071 353.048 165.055C355.618 168.049 353.505 170.294 352.746 173.476C352.094 176.217 354.703 177.846 355.433 178.242C355.725 176.14 355.939 174.356 356.065 173.101C356.542 168.28 356.065 163.425 354.527 158.879V158.868Z" fill="#2B2B2B" stroke="#2B2B2B" stroke-linecap="round" stroke-linejoin="round"/>
<path d="M309.496 177.791C309.496 177.791 307.092 175.336 305.106 177.758C303.12 180.191 304.444 185.431 305.602 187.665C306.761 189.9 312.056 192.531 312.056 192.531L309.496 177.78V177.791Z" fill="white" stroke="#2B2B2B" stroke-linecap="round" stroke-linejoin="round"/>
<path d="M355.627 177.791C355.627 177.791 358.149 175.479 360.008 178.033C361.867 180.587 360.3 185.728 359.034 187.896C357.769 190.065 352.678 192.134 352.678 192.134L355.627 177.78V177.791Z" fill="white" stroke="#2B2B2B" stroke-linecap="round" stroke-linejoin="round"/>
<path d="M282.308 391.326L341.006 433.938L383.497 391.326C383.263 383.917 381.55 369.871 379.37 359.039C327.456 366.414 296.228 361.505 286.348 359.402C284.206 370.19 282.532 383.994 282.298 391.326H282.308Z" fill="#285E67" stroke="#285E67" stroke-linecap="round" stroke-linejoin="round"/>
<path d="M285.734 362.749C332.245 372.084 369.1 364.631 379.944 361.923C379.175 357.74 378.328 353.876 377.452 350.838C374.425 340.27 365.031 318.793 365.031 317.384C365.031 315.975 372.906 289.919 372.906 278.306C372.906 266.692 364.427 236.057 364.427 236.057C364.427 236.057 360.738 235.374 356.844 234.152C357.058 244.5 356.075 281.245 330.902 277.601C306.245 274.046 308.328 243.498 309.593 233.954C305.486 235.297 301.417 236.046 301.417 236.046C301.417 236.046 292.938 266.681 292.938 278.295C292.938 289.908 300.813 315.975 300.813 317.373C300.813 318.771 291.419 340.259 288.392 350.827C287.467 354.063 286.562 358.235 285.754 362.738L285.734 362.749Z" fill="#FCE2D7" stroke="#2B2B2B" stroke-linecap="round" stroke-linejoin="round"/>
<path d="M323.776 360.393C323.776 360.393 348.2 351.19 350.585 349.176C352.97 347.15 356.241 345.477 356.241 345.477L374.103 341.778L372.02 336.054C372.02 336.054 350.877 340.435 345.523 343.462C340.159 346.49 323.776 360.404 323.776 360.404V360.393Z" fill="#2B2B2B" stroke="#2B2B2B" stroke-linecap="round" stroke-linejoin="round"/>
<path d="M313.886 315.172L353.311 297.779" stroke="#2B2B2B" stroke-linecap="round" stroke-linejoin="round"/>
<path d="M350.429 304.296L336.967 309.734" stroke="#2B2B2B" stroke-linecap="round" stroke-linejoin="round"/>
<path d="M301.397 236.046C301.397 236.046 287.603 233.932 277.947 245.204C268.29 256.477 251.791 286.749 251.791 291.681C251.791 296.612 263.618 297.669 271.094 293.442C278.57 289.215 293.824 266.681 293.824 266.681L301.387 236.046H301.397Z" fill="white" stroke="#2B2B2B" stroke-linecap="round" stroke-linejoin="round"/>
<path d="M396.395 303.129C395.431 303.074 390.321 306.343 385.833 309.624C380.1 313.818 362.996 327.952 355.832 329.35C348.667 330.759 345.864 330.055 345.864 330.055C345.864 330.055 337.414 325.828 335.234 325.475C333.053 325.123 329.432 326.345 326.473 326.906C323.514 327.468 321.538 326.631 321.664 327.6C321.791 328.58 321.907 330.11 323.884 330.671C325.86 331.233 328.819 330.946 328.819 330.946C328.819 330.946 331.778 331.089 332.275 331.222C332.771 331.365 312.903 341.679 312.903 341.679C312.903 341.679 312.66 342.241 313.516 342.791C314.383 343.353 323.767 341.151 323.767 341.151L324.127 342.373C324.127 342.373 311.424 348.647 311.17 349.209C310.927 349.77 311.044 351.025 311.91 351.025C312.777 351.025 324.838 346.743 324.838 346.743L325.11 348.097C325.11 348.097 315.493 355.208 315.239 355.627C314.996 356.045 315.239 357.3 316.106 357.157C316.972 357.014 327.203 352.137 327.203 352.137L327.622 352.996C327.622 352.996 322.015 359.116 322.141 359.677C322.268 360.239 323.007 360.932 323.747 360.371C324.487 359.81 332.878 354.647 332.878 354.647C332.878 354.647 344.842 349.341 345.582 349.066C346.321 348.79 354.586 342.923 354.586 342.923C354.586 342.923 381.482 338.883 392.823 332.466C404.173 326.048 411.045 323.802 411.191 320.885C411.328 317.968 408.612 309.591 408.612 309.591" fill="white"/>
<path d="M396.395 303.129C395.431 303.074 390.321 306.343 385.833 309.624C380.1 313.818 362.996 327.952 355.832 329.35C348.667 330.759 345.864 330.055 345.864 330.055C345.864 330.055 337.414 325.828 335.234 325.475C333.053 325.123 329.432 326.345 326.473 326.906C323.514 327.468 321.538 326.631 321.664 327.6C321.791 328.58 321.907 330.11 323.884 330.671C325.86 331.233 328.819 330.946 328.819 330.946C328.819 330.946 331.778 331.089 332.275 331.222C332.771 331.365 312.903 341.679 312.903 341.679C312.903 341.679 312.66 342.241 313.516 342.791C314.383 343.353 323.767 341.151 323.767 341.151L324.127 342.373C324.127 342.373 311.424 348.647 311.17 349.209C310.927 349.77 311.044 351.025 311.91 351.025C312.777 351.025 324.838 346.743 324.838 346.743L325.11 348.097C325.11 348.097 315.493 355.208 315.239 355.627C314.996 356.045 315.239 357.3 316.106 357.157C316.972 357.014 327.203 352.137 327.203 352.137L327.622 352.996C327.622 352.996 322.015 359.116 322.141 359.677C322.268 360.239 323.007 360.932 323.747 360.371C324.487 359.81 332.878 354.647 332.878 354.647C332.878 354.647 344.842 349.341 345.582 349.066C346.321 348.79 354.586 342.923 354.586 342.923C354.586 342.923 381.482 338.883 392.823 332.466C404.173 326.048 411.045 323.802 411.191 320.885C411.328 317.968 408.612 309.591 408.612 309.591" stroke="#2B2B2B" stroke-linecap="round" stroke-linejoin="round"/>
<path d="M257.427 279.671C257.427 279.671 270.169 271.723 286.864 265.426C303.558 259.13 314.393 255.156 324.497 250.026C334.601 244.896 333.141 246.547 333.579 246.547C334.017 246.547 346.467 249.531 347.343 249.696C348.22 249.861 360.962 254.991 360.962 254.991C360.962 254.991 361.108 256.477 359.94 256.983L358.772 257.478C358.772 257.478 358.042 258.964 356.864 259.13C355.696 259.295 352.912 259.79 352.473 259.79C352.035 259.79 350.273 260.781 348.521 261.276C346.769 261.772 344.861 262.267 343.839 262.432C342.817 262.597 337.687 262.927 337.687 262.927C337.687 262.927 333.589 264.083 329.189 264.248C324.799 264.413 319.231 263.588 319.231 263.588C319.231 263.588 276.321 297.372 271.045 300.85C265.769 304.329 260.357 307.972 255.957 306.651C251.567 305.33 248.491 303.668 249.221 299.529C249.951 295.39 251.713 286.782 257.417 279.66L257.427 279.671Z" fill="white" stroke="#2B2B2B" stroke-linecap="round" stroke-linejoin="round"/>
<path d="M335.623 249.861C335.623 249.861 344.851 251.182 347.188 251.347C349.534 251.512 360.952 254.99 360.952 254.99" stroke="#2B2B2B" stroke-linecap="round" stroke-linejoin="round"/>
<path d="M336.363 254L350.127 254.671L358.762 257.478" stroke="#2B2B2B" stroke-linecap="round" stroke-linejoin="round"/>
<path d="M336.207 257.809L343.537 258.315L352.464 259.801" stroke="#2B2B2B" stroke-linecap="round" stroke-linejoin="round"/>
<path d="M353.973 417.008C353.973 417.008 367.533 395.399 380.304 385.524C393.076 375.65 419.68 367.317 441.582 377.191C463.485 387.066 479.391 411.14 481.211 414.542C483.031 417.932 481.474 425.957 478.865 429.975C476.256 433.993 469.744 438 466.346 438H307.306C307.306 438 306.527 434.609 309.136 431.824C311.745 429.05 327.125 423.183 330.26 421.334C333.384 419.484 337.035 408.366 343.041 406.209C349.047 404.051 353.992 417.008 353.992 417.008H353.973Z" fill="#285E67" stroke="#285E67" stroke-linecap="round" stroke-linejoin="round"/>
<path d="M452.105 438H307.734C307.734 438 306.955 434.609 309.545 431.824C312.124 429.05 327.359 423.183 330.464 421.334C333.56 419.484 337.181 408.366 343.119 406.209C349.057 404.051 353.963 417.007 353.963 417.007C353.963 417.007 355.511 419.473 358.1 421.191C360.68 422.908 364.992 424.79 365.849 424.79C366.705 424.79 385.23 422.049 394.701 416.897C404.173 411.757 417.811 401.464 428.859 400.088C439.908 398.712 448.951 404.888 454.548 409.346" fill="#285E67"/>
<path d="M452.105 438H307.734C307.734 438 306.955 434.609 309.545 431.824C312.124 429.05 327.359 423.183 330.464 421.334C333.56 419.484 337.181 408.366 343.119 406.209C349.057 404.051 353.963 417.007 353.963 417.007C353.963 417.007 355.511 419.473 358.1 421.191C360.68 422.908 364.992 424.79 365.849 424.79C366.705 424.79 385.23 422.049 394.701 416.897C404.173 411.757 417.811 401.464 428.859 400.088C439.908 398.712 448.951 404.888 454.548 409.346" stroke="#285E67" stroke-linecap="round" stroke-linejoin="round"/>
<path d="M458.851 414.498C458.851 414.498 454.402 420.156 450.1 421.014C445.797 421.873 430.29 419.132 425.121 417.756" stroke="white" stroke-linecap="round" stroke-linejoin="round"/>
<path d="M365.839 424.79C366.695 424.79 385.22 422.049 394.692 416.897C404.163 411.757 417.801 401.464 428.85 400.088C439.898 398.712 448.941 404.888 454.539 409.346" stroke="white" stroke-linecap="round" stroke-linejoin="round"/>
<path d="M365.527 424.746L364.31 438H307.734C307.734 438 306.955 434.609 309.545 431.824C312.124 429.05 327.359 423.183 330.464 421.334C333.56 419.484 337.181 408.366 343.119 406.209C349.057 404.051 353.963 417.007 353.963 417.007C353.963 417.007 355.511 419.473 358.1 421.191C360.456 422.754 364.233 424.46 365.537 424.746H365.527Z" fill="white" stroke="#285E67" stroke-linecap="round" stroke-linejoin="round"/>
<path d="M325.022 417.008C325.022 417.008 310.83 395.399 297.455 385.524C284.08 375.65 256.239 367.317 233.315 377.191C210.39 387.066 193.744 411.14 191.827 414.542C189.919 417.932 191.554 425.957 194.28 429.975C197.005 433.982 203.829 438 207.382 438H373.87C373.87 438 374.687 434.609 371.962 431.824C369.236 429.05 353.126 423.183 349.855 421.334C346.584 419.484 342.759 408.366 336.48 406.209C330.201 404.051 325.013 417.008 325.013 417.008H325.022Z" fill="#285E67" stroke="#285E67" stroke-linecap="round" stroke-linejoin="round"/>
<path d="M221.293 438H373.87C373.87 438 374.687 434.609 371.962 431.824C369.236 429.05 353.126 423.183 349.855 421.334C346.584 419.484 342.759 408.366 336.48 406.209C330.201 404.051 325.013 417.007 325.013 417.007C325.013 417.007 323.377 419.473 320.642 421.191C317.907 422.908 313.361 424.79 312.455 424.79C311.55 424.79 291.974 422.049 281.967 416.897C271.951 411.757 257.544 401.464 245.862 400.088C234.181 398.712 224.622 404.888 218.713 409.346" fill="#285E67"/>
<path d="M221.293 438H373.87C373.87 438 374.687 434.609 371.962 431.824C369.236 429.05 353.126 423.183 349.855 421.334C346.584 419.484 342.759 408.366 336.48 406.209C330.201 404.051 325.013 417.007 325.013 417.007C325.013 417.007 323.377 419.473 320.642 421.191C317.907 422.908 313.361 424.79 312.455 424.79C311.55 424.79 291.974 422.049 281.967 416.897C271.951 411.757 257.544 401.464 245.862 400.088C234.181 398.712 224.622 404.888 218.713 409.346" stroke="#285E67" stroke-linecap="round" stroke-linejoin="round"/>
<path d="M214.167 414.498C214.167 414.498 218.869 420.156 223.425 421.014C227.971 421.873 244.353 419.132 249.814 417.756" stroke="white" stroke-linecap="round" stroke-linejoin="round"/>
<path d="M312.455 424.79C311.55 424.79 291.974 422.049 281.967 416.897C271.951 411.757 257.544 401.464 245.862 400.088C234.181 398.712 224.622 404.888 218.713 409.346" stroke="white" stroke-linecap="round" stroke-linejoin="round"/>
<path d="M312.786 424.746L314.071 438H373.86C373.86 438 374.678 434.609 371.952 431.824C369.226 429.05 353.116 423.183 349.845 421.334C346.574 419.484 342.749 408.366 336.47 406.209C330.191 404.051 325.003 417.007 325.003 417.007C325.003 417.007 323.368 419.473 320.632 421.191C318.14 422.754 314.149 424.46 312.767 424.746H312.786Z" fill="white" stroke="#285E67" stroke-linecap="round" stroke-linejoin="round"/>
<path d="M286.28 380.549C286.28 380.549 305.583 386.68 322.287 405.075" stroke="white" stroke-linecap="round" stroke-linejoin="round"/>
<path d="M380.314 385.524C380.314 385.524 363.493 393.296 349.397 404.579" stroke="white" stroke-linecap="round" stroke-linejoin="round"/>
</svg>
