<svg width="22" height="23" viewBox="0 0 22 23" fill="none" xmlns="http://www.w3.org/2000/svg">
<g id="teenyicons:twitter-outline" clip-path="url(#clip0_1_53)">
<path id="Vector" d="M21.2344 2.70001L21.9678 2.65161C21.9583 2.50764 21.9065 2.36968 21.8189 2.255C21.7314 2.14031 21.6119 2.05401 21.4756 2.00688C21.3392 1.95975 21.192 1.9539 21.0523 1.99006C20.9126 2.02621 20.7867 2.10277 20.6903 2.21014L21.2344 2.70001ZM20.504 7.03988C20.504 6.84538 20.4268 6.65886 20.2893 6.52133C20.1517 6.3838 19.9652 6.30654 19.7707 6.30654C19.5762 6.30654 19.3897 6.3838 19.2522 6.52133C19.1146 6.65886 19.0374 6.84538 19.0374 7.03988H20.504ZM0.733378 18.8333V18.1C0.575915 18.0998 0.422572 18.1503 0.296033 18.244C0.169494 18.3377 0.0764805 18.4697 0.0307512 18.6204C-0.014978 18.771 -0.0109936 18.9324 0.0421149 19.0807C0.0952234 19.2289 0.194635 19.3561 0.325644 19.4435L0.733378 18.8333ZM2.19711 2.70001L2.88498 2.44334C2.83499 2.30945 2.74697 2.19308 2.63173 2.10854C2.51649 2.024 2.37906 1.97498 2.23633 1.9675C2.09361 1.96002 1.95181 1.99441 1.82837 2.06644C1.70492 2.13847 1.60522 2.245 1.54151 2.37294L2.19711 2.70001ZM8.05498 15.9L8.57418 16.4177C8.66227 16.3294 8.72635 16.22 8.76037 16.0999C8.79438 15.9799 8.79721 15.8532 8.76857 15.7317C8.73994 15.6103 8.68079 15.4982 8.59673 15.4059C8.51266 15.3137 8.40646 15.2445 8.28818 15.2048L8.05498 15.9ZM18.6502 4.12707L18.1075 4.61987L18.3715 4.91174L18.7602 4.85307L18.6502 4.12707ZM20.504 2.74841C20.5788 3.88947 20.5084 4.58174 20.3236 5.10387C20.1447 5.60987 19.8308 6.02641 19.2632 6.57054L20.2782 7.62948C20.9206 7.01347 21.4163 6.40921 21.7067 5.59374C21.9898 4.79294 22.0484 3.86601 21.9678 2.65161L20.504 2.74841ZM20.504 8.10761V7.03988H19.0374V8.10908H20.504V8.10761ZM10.252 7.16014V8.56668H11.7187V7.16014H10.252ZM10.252 8.56668V9.30001H11.7187V8.56668H10.252ZM15.4367 1.96667C14.7551 1.96706 14.0802 2.1017 13.4506 2.3629C12.821 2.62411 12.249 3.00676 11.7673 3.48902C11.2856 3.97128 10.9036 4.5437 10.6431 5.17359C10.3826 5.80348 10.2487 6.47851 10.2491 7.16014H11.7158C11.7154 6.67099 11.8114 6.18656 11.9983 5.73452C12.1851 5.28247 12.4592 4.87168 12.8049 4.52559C13.1506 4.17951 13.5611 3.90492 14.0129 3.71751C14.4647 3.53009 14.949 3.43353 15.4382 3.43334V1.96667H15.4367ZM19.0359 8.10761C19.0374 14.4377 13.9143 19.5667 7.59738 19.5667V21.0333C14.7254 21.0333 20.504 15.2459 20.504 8.10761H19.0359ZM1.51071 2.95667C2.30858 5.08627 5.30058 9.30001 10.9854 9.30001V7.83334C6.12191 7.83334 3.55084 4.22534 2.88351 2.44334L1.51071 2.95667ZM1.54151 2.37294C0.00591078 5.44707 -0.230222 8.43027 0.885911 10.9705C1.99911 13.5035 4.39418 15.4512 7.82324 16.5952L8.28818 15.2048C5.12751 14.1488 3.12844 12.4299 2.22791 10.3795C1.33031 8.33641 1.46084 5.81814 2.85418 3.02707L1.54151 2.37294ZM7.53578 15.3823C6.65284 16.2667 3.99818 18.1 0.733378 18.1V19.5667C4.49684 19.5667 7.50498 17.4899 8.57418 16.4177L7.53578 15.3823ZM19.1943 3.63574C18.7201 3.10987 18.1407 2.68954 17.4936 2.40201C16.8466 2.11447 16.1463 1.96616 15.4382 1.96667V3.43334C16.4956 3.43334 17.4475 3.88947 18.1075 4.61987L19.1943 3.63574ZM18.7602 4.85307C19.9284 4.66221 20.9954 4.07489 21.7815 3.18987L20.6903 2.21014C20.1311 2.84189 19.3722 3.26277 18.5402 3.40254L18.7602 4.85307ZM0.325644 19.4435C2.73244 21.048 5.25511 21.0333 7.59738 21.0333V19.5667C5.20671 19.5667 3.12698 19.5505 1.14111 18.2232L0.325644 19.4435Z" fill="white"/>
</g>
<defs>
<clipPath id="clip0_1_53">
<rect width="22" height="22" fill="white" transform="translate(0 0.5)"/>
</clipPath>
</defs>
</svg>
